<svg width="110.000000" height="146.000000" viewBox="0 0 110 146" fill="none" xmlns="http://www.w3.org/2000/svg" xmlns:xlink="http://www.w3.org/1999/xlink">
	<desc>
			Created with Pixso.
	</desc>
	<defs>
		<filter id="filter_50_195_dd" x="0.000000" y="0.000000" width="108.000000" height="114.000000" filterUnits="userSpaceOnUse" color-interpolation-filters="sRGB">
			<feFlood flood-opacity="0" result="BackgroundImageFix"/>
			<feBlend mode="normal" in="SourceGraphic" in2="BackgroundImageFix" result="shape"/>
			<feColorMatrix in="SourceAlpha" type="matrix" values="0 0 0 0 0 0 0 0 0 0 0 0 0 0 0 0 0 0 127 0" result="hardAlpha"/>
			<feOffset dx="0" dy="4"/>
			<feGaussianBlur stdDeviation="1.33333"/>
			<feComposite in2="hardAlpha" operator="arithmetic" k2="-1" k3="1"/>
			<feColorMatrix type="matrix" values="0 0 0 0 0 0 0 0 0 0 0 0 0 0 0 0 0 0 0.25 0"/>
			<feBlend mode="normal" in2="shape" result="effect_innerShadow_1"/>
		</filter>
	</defs>
	<path id="Meat Line" d="M80.67 131.09Q80.63 131.08 80.58 131.08Q80.4 131.08 80.25 131.14Q80.08 131.2 79.93 131.32Q79.76 131.47 79.67 131.66Q79.59 131.85 79.59 132.07Q79.59 132.36 79.71 132.57Q79.84 132.8 80.11 132.95Q80.21 133 80.32 133.03Q80.45 133.07 80.58 133.07Q80.8 133.07 80.98 132.98Q81.16 132.91 81.3 132.75Q81.44 132.6 81.51 132.42Q81.57 132.25 81.57 132.07Q81.57 131.81 81.46 131.61Q81.35 131.39 81.11 131.24Q80.9 131.11 80.67 131.09ZM5.56 131.84L2.45 131.84L2.45 132.42Q3.44 132.55 3.71 132.75Q4.03 132.99 4.03 133.67L4.03 142.16Q4.03 142.83 3.73 143.07Q3.46 143.28 2.45 143.42L2.45 144L6.5 144L6.5 143.42Q5.48 143.3 5.21 143.08Q4.92 142.85 4.92 142.16L4.92 133.23L4.98 133.23L9.28 142.78L9.91 142.78L14.32 133.44L14.39 133.44L14.39 142.16Q14.39 142.81 14.1 143.07Q13.82 143.32 12.78 143.42L12.78 144L17.1 144L17.1 143.42Q16.1 143.32 15.85 143.12Q15.52 142.85 15.52 142.16L15.52 133.67Q15.52 132.97 15.81 132.75Q16.07 132.54 17.1 132.42L17.1 131.84L14.13 131.84L9.79 141.02L5.56 131.84ZM69.85 131.84L65.2 131.84L65.2 132.42Q66.27 132.52 66.58 132.77Q66.91 133.05 66.91 133.87L66.91 141.96Q66.91 142.7 66.56 142.99Q66.15 143.33 65.2 143.42L65.2 144L74.17 144L74.45 140L73.89 140Q73.66 141.59 72.99 142.29Q72.91 142.38 72.82 142.46Q72 143.2 70.51 143.2L69.71 143.2Q68.74 143.2 68.4 142.94Q68.05 142.67 68.05 141.84L68.05 133.87Q68.05 133.07 68.35 132.8Q68.66 132.53 69.85 132.42L69.85 131.84ZM46.72 135.37L46.72 136.12L48.56 136.12L48.56 141.6Q48.56 142.66 48.88 143.28Q49.1 143.71 49.45 143.96Q49.91 144.27 50.58 144.27Q51.14 144.27 51.63 144.07Q52.4 143.75 52.97 142.91L52.6 142.3Q52.17 142.94 51.58 143.17Q51.26 143.29 50.89 143.29Q50.4 143.29 50.12 143.05Q50.01 142.96 49.93 142.82Q49.69 142.41 49.69 141.48L49.69 136.12L52.6 136.12L52.6 135.35L49.69 135.35L49.69 132.65L49.12 132.65Q48.99 133.71 48.57 134.31Q48.5 134.4 48.42 134.49Q47.84 135.16 46.72 135.37ZM22.69 139.71L22.69 139.59L29.57 139.59L29.57 139.27Q29.57 138.7 29.44 138.16Q29.22 137.19 28.66 136.49Q28.36 136.11 27.96 135.81Q27.62 135.55 27.24 135.38Q26.48 135.03 25.57 135.03Q24.6 135.03 23.81 135.42Q23.02 135.81 22.43 136.58Q22.22 136.85 22.06 137.14Q21.44 138.25 21.44 139.71Q21.44 141.34 22.19 142.5Q22.25 142.6 22.32 142.7Q22.81 143.36 23.46 143.75Q24.39 144.32 25.66 144.32Q26.63 144.32 27.43 143.94Q28.65 143.38 29.47 141.96L28.96 141.45Q28.05 142.85 26.81 143.25Q26.31 143.42 25.76 143.42Q24.9 143.42 24.27 143.04Q23.61 142.66 23.19 141.89Q22.69 140.97 22.69 139.71ZM40.54 138.14L40.54 138.38L39.87 138.41Q37.45 138.53 36 139.35Q35.06 139.89 34.71 140.69Q34.51 141.14 34.51 141.69Q34.51 142.34 34.77 142.87Q34.88 143.1 35.04 143.31Q35.34 143.68 35.71 143.91Q36.33 144.28 37.18 144.28Q38.87 144.28 39.86 143.45Q40.27 143.1 40.56 142.6Q40.63 143.7 41.18 144.08Q41.48 144.28 41.92 144.28Q42.12 144.28 42.3 144.23Q42.99 144.01 43.43 142.97L42.97 142.38Q42.61 143.15 42.18 143.18Q42.16 143.18 42.15 143.18Q42.06 143.18 41.99 143.15Q41.65 143 41.65 142.07L41.65 138.47Q41.65 136.53 40.69 135.76Q40.61 135.69 40.53 135.64Q39.6 135.03 38.22 135.03Q36.87 135.03 35.89 135.63Q35.86 135.66 35.82 135.68Q35.08 136.16 34.95 136.76Q34.93 136.88 34.93 137.01Q34.93 137.38 35.1 137.65Q35.14 137.71 35.18 137.77Q35.31 137.91 35.47 137.98Q35.62 138.04 35.79 138.04Q36.06 138.04 36.26 137.92Q36.39 137.84 36.48 137.71Q36.53 137.64 36.56 137.57Q36.64 137.4 36.64 137.2Q36.64 136.79 36.43 136.58Q36.34 136.48 36.19 136.42Q36.29 136.24 36.6 136.09Q37.22 135.78 38.17 135.78Q38.45 135.78 38.72 135.83Q39.02 135.89 39.32 136Q39.79 136.19 40.04 136.46Q40.54 137 40.54 138.14ZM78.45 143.42L78.45 144L82.72 144L82.72 143.42Q81.76 143.4 81.49 143.16Q81.19 142.89 81.19 142.14L81.19 135.03Q79.78 135.35 78.61 135.35L78.61 135.93Q79.4 136.01 79.72 136.21Q79.74 136.23 79.77 136.25Q80.06 136.47 80.06 137.07L80.06 142.14Q80.06 142.83 79.81 143.09Q79.53 143.38 78.45 143.42ZM86.56 143.42L86.56 144L90.49 144L90.49 143.42Q89.7 143.36 89.42 143.11Q89.15 142.87 89.15 142.14L89.15 137.75Q90.24 136.16 91.53 135.99Q91.69 135.96 91.85 135.96Q92.38 135.96 92.8 136.19Q93.1 136.36 93.33 136.64Q93.34 136.66 93.35 136.67Q93.91 137.37 93.91 138.51L93.91 142.14Q93.91 142.89 93.65 143.11Q93.36 143.37 92.55 143.42L92.55 144L96.51 144L96.51 143.42Q95.6 143.37 95.32 143.14Q95.03 142.89 95.03 142.14L95.03 138.56Q95.03 137 94.31 136.11Q93.96 135.68 93.51 135.42Q92.84 135.03 91.95 135.03Q91.92 135.03 91.89 135.03Q91.18 135.05 90.49 135.41Q89.9 135.72 89.47 136.17Q89.3 136.35 89.15 136.56L89.15 135.03Q88 135.35 86.61 135.35L86.61 135.93Q87.5 136 87.73 136.15Q88.03 136.37 88.03 137.07L88.03 142.14Q88.03 142.85 87.74 143.11Q87.46 143.38 86.56 143.42ZM101.95 139.71L101.95 139.59L108.82 139.59L108.82 139.27Q108.82 138.7 108.7 138.16Q108.48 137.19 107.92 136.49Q107.62 136.11 107.21 135.81Q106.87 135.55 106.5 135.38Q105.74 135.03 104.83 135.03Q103.86 135.03 103.07 135.42Q102.28 135.81 101.68 136.58Q101.48 136.85 101.32 137.14Q100.7 138.25 100.7 139.71Q100.7 141.34 101.45 142.5Q101.51 142.6 101.58 142.7Q102.06 143.36 102.71 143.75Q103.65 144.32 104.92 144.32Q105.89 144.32 106.69 143.94Q107.91 143.38 108.73 141.96L108.22 141.45Q107.31 142.85 106.07 143.25Q105.57 143.42 105.02 143.42Q104.16 143.42 103.52 143.04Q102.87 142.66 102.45 141.89Q101.95 140.97 101.95 139.71ZM27.64 136.81Q28.16 137.5 28.22 138.82L22.72 138.82Q22.87 137.7 23.46 136.92Q23.5 136.86 23.55 136.81Q24.09 136.15 24.78 135.92Q25.16 135.78 25.59 135.78Q26.21 135.78 26.72 136.03Q27.24 136.29 27.64 136.81ZM106.89 136.81Q107.42 137.5 107.48 138.82L101.98 138.82Q102.13 137.7 102.72 136.92Q102.76 136.86 102.81 136.81Q103.35 136.15 104.03 135.92Q104.42 135.78 104.85 135.78Q105.47 135.78 105.98 136.03Q106.5 136.29 106.89 136.81ZM39.95 139.21L40.54 139.18L40.54 141.14Q40.54 141.45 40.39 141.76Q40.04 142.42 39.18 142.87Q38.65 143.15 38.08 143.24Q37.79 143.29 37.49 143.29Q36.7 143.29 36.26 142.9Q36.19 142.85 36.14 142.78Q36.1 142.74 36.06 142.69Q35.75 142.28 35.75 141.63Q35.75 141.15 35.94 140.77Q36.2 140.26 36.8 139.93Q37.9 139.32 39.95 139.21Z" fill="#FFFFFF" fill-opacity="1.000000" fill-rule="evenodd"/>
	<g filter="url(#filter_50_195_dd)">
		<path id="Vector" d="M64.46 0.09C63.39 0.33 62.19 1.06 61.45 1.92C60.72 2.76 60.17 4.26 60.17 5.39C60.18 6.88 60.72 8.19 61.77 9.24C62.57 10.04 62.88 10.21 64.61 10.89C70.66 13.24 75.55 16.23 80.31 20.48C88.94 28.18 94.89 39.17 96.56 50.45C97 53.43 97.18 57.83 96.97 60.57C95.82 76.02 87.53 89.26 74.1 97.07C69.06 100 63.1 102.03 57.27 102.76C53.55 103.24 49.07 103.17 45.44 102.59C34.03 100.76 24.07 94.34 17.71 84.72C16.51 82.91 15.82 81.71 14.94 79.87C13.05 75.94 11.87 72.05 11.29 67.83C10.76 63.99 10.89 59.47 11.63 55.7C14.19 42.83 23.37 32.47 35.97 28.28C37.93 27.63 40.16 27.13 42.76 26.77C44.1 26.58 49.11 26.62 50.53 26.81C57.84 27.86 63.87 30.77 68.79 35.66C73.98 40.81 77.13 47.25 77.95 54.42C78.2 56.57 78.05 60.21 77.62 62.4C76.75 66.87 74.91 70.87 72.17 74.3C71.33 75.36 69.15 77.51 68.03 78.4C61.08 83.9 52.3 85.58 44.53 82.89C37.6 80.48 32.28 74.71 30.48 67.62C30.04 65.88 29.95 65.11 29.95 62.98C29.95 60.82 30.04 60.02 30.5 58.3C31.83 53.17 35.43 48.93 40.23 46.81C46.03 44.24 52.55 45.49 56.3 49.86C59.05 53.06 59.91 56.97 58.64 60.43C57.92 62.41 56.29 64.12 54.31 64.94C53.43 65.3 52.38 65.49 51.63 65.42C51.31 65.38 51.06 65.33 51.07 65.3C51.07 65.28 51.4 65.09 51.8 64.9C52.79 64.43 53.59 63.62 54.09 62.6C54.6 61.57 54.74 60.97 54.79 59.62C54.83 58.53 54.81 58.4 54.56 57.52C53.56 54.02 50 51.99 45.88 52.58C43.58 52.92 41.9 53.75 40.43 55.27C38.44 57.33 37.49 59.75 37.48 62.68C37.48 64.56 37.89 66.31 38.75 68.14C40.77 72.42 44.71 75.35 49.59 76.17C50.61 76.34 50.96 76.36 52.49 76.32C53.72 76.28 54.48 76.22 55.09 76.09C58.81 75.33 61.89 73.66 64.59 70.95C68.19 67.37 70.17 62.53 70.17 57.31C70.17 53.82 69.42 50.69 67.79 47.48C64.64 41.23 58.74 36.65 51.87 35.13C49.72 34.66 49.05 34.59 46.37 34.6C43.7 34.6 42.98 34.67 40.9 35.12C32.5 36.98 25.16 42.93 21.57 50.81C17.23 60.36 18.31 71.43 24.49 80.58C28.47 86.47 34.21 90.88 40.97 93.23C44.62 94.5 47.99 95.05 52.03 95.06C56.31 95.06 59.96 94.45 63.91 93.04C71.89 90.21 78.61 84.84 83.25 77.59C84.13 76.2 85.71 73.11 86.31 71.58C87.77 67.87 88.6 64.29 88.94 60.32C89.09 58.49 88.99 54.24 88.76 52.5C88.21 48.4 87.14 44.54 85.59 41.05C82.58 34.28 78.02 28.56 72.13 24.1C62.03 16.48 48.64 13.81 36.02 16.89C27.14 19.07 19.18 23.7 12.85 30.39C9.54 33.87 7.04 37.48 4.89 41.81C0.65 50.37 -0.88 59.96 0.47 69.66C1.56 77.52 4.77 85.5 9.52 92.17C17.98 104.05 30.78 111.74 45.17 113.59C47.81 113.94 48.84 114 52 114C56.72 114 59.97 113.62 64.41 112.57C78.33 109.27 90.63 100.7 98.64 88.73C103.4 81.61 106.52 73.15 107.58 64.54C107.92 61.88 108 60.56 108 57.4C108 53.45 107.75 50.68 107.09 47.07C103.44 27.08 89.99 10.03 71.39 1.84C70.2 1.31 67.88 0.4 67.15 0.17C66.53 -0.02 65.15 -0.07 64.46 0.09Z" fill="#97F3FF" fill-opacity="0.700000" fill-rule="nonzero"/>
	</g>
</svg>
