<svg width="27.000000" height="26.000000" viewBox="0 0 27 26" fill="none" xmlns="http://www.w3.org/2000/svg" xmlns:xlink="http://www.w3.org/1999/xlink">
	<desc>
			Created with Pixso.
	</desc>
	<defs/>
	<path id="Vector" d="M15.57 11.05C15.05 10.31 14.19 9.83 13.22 9.83C12.25 9.83 11.39 10.31 10.87 11.05C10.53 11.53 10.32 12.12 10.32 12.75C10.32 14.35 11.62 15.65 13.22 15.65C14.81 15.65 16.12 14.35 16.12 12.75C16.12 12.12 15.91 11.53 15.57 11.05Z" fill="#FFFFFF" fill-opacity="1.000000" fill-rule="nonzero"/>
	<path id="Vector" d="M17.4 11.07C17.61 11.49 17.73 12.16 17.73 12.75C17.73 15.23 15.72 17.26 13.22 17.26C10.72 17.26 8.71 15.25 8.71 12.75C8.71 12.14 8.83 11.49 9.04 11.07L6.5 11.07L6.5 17.81C6.5 18.69 7.28 19.47 8.16 19.47L18.28 19.47C19.16 19.47 19.94 18.69 19.94 17.81L19.94 11.07L17.4 11.07Z" fill="#FFFFFF" fill-opacity="1.000000" fill-rule="nonzero"/>
	<path id="Vector" d="M19.18 6.41L16.75 6.41L16.75 9.2L19.52 9.2L19.52 6.77L19.52 6.39L19.18 6.41Z" fill="#FFFFFF" fill-opacity="1.000000" fill-rule="nonzero"/>
	<path id="Vector" d="M19.81 -0.47L6.63 -0.47C2.98 -0.47 0 2.51 0 6.16L0 19.36C0 22.99 2.98 25.97 6.63 25.97L19.83 25.97C23.48 25.97 26.46 22.99 26.46 19.34L26.46 6.16C26.44 2.51 23.46 -0.47 19.81 -0.47ZM21.41 11.05L21.41 17.81C21.41 19.57 20.04 20.94 18.28 20.94L8.16 20.94C6.4 20.94 5.03 19.57 5.03 17.81L5.03 11.05L5.03 7.69C5.03 5.93 6.4 4.56 8.16 4.56L18.28 4.56C20.04 4.56 21.41 5.93 21.41 7.69L21.41 11.05Z" fill="#FFFFFF" fill-opacity="1.000000" fill-rule="nonzero"/>
</svg>
