<svg width="37.000000" height="39.000000" viewBox="0 0 37 39" fill="none" xmlns="http://www.w3.org/2000/svg" xmlns:xlink="http://www.w3.org/1999/xlink">
	<desc>
			Created with Pixso.
	</desc>
	<defs/>
	<path id="Vector" d="M22.08 0.03C21.71 0.11 21.3 0.36 21.05 0.65C20.8 0.94 20.61 1.45 20.61 1.84C20.61 2.35 20.8 2.8 21.16 3.16C21.43 3.43 21.54 3.49 22.13 3.72C24.2 4.53 25.88 5.55 27.51 7C30.47 9.64 32.51 13.4 33.08 17.26C33.23 18.28 33.29 19.78 33.22 20.72C32.82 26 29.98 30.53 25.38 33.2C23.66 34.21 21.61 34.9 19.62 35.15C18.34 35.31 16.81 35.29 15.56 35.09C11.66 34.47 8.24 32.27 6.06 28.98C5.65 28.36 5.42 27.95 5.11 27.32C4.47 25.98 4.06 24.65 3.86 23.2C3.68 21.89 3.73 20.34 3.98 19.05C4.86 14.65 8 11.11 12.32 9.67C12.99 9.45 13.75 9.28 14.65 9.15C15.1 9.09 16.82 9.1 17.31 9.17C19.81 9.53 21.88 10.52 23.56 12.2C25.34 13.96 26.42 16.16 26.7 18.61C26.79 19.35 26.74 20.6 26.59 21.34C26.29 22.87 25.66 24.24 24.72 25.41C24.43 25.78 23.69 26.51 23.3 26.82C20.92 28.7 17.92 29.27 15.25 28.35C12.88 27.53 11.06 25.55 10.44 23.13C10.29 22.54 10.26 22.27 10.26 21.54C10.26 20.8 10.29 20.53 10.44 19.94C10.9 18.19 12.13 16.74 13.78 16.01C15.76 15.13 18 15.56 19.28 17.05C20.23 18.15 20.52 19.49 20.09 20.67C19.84 21.35 19.28 21.93 18.6 22.21C18.3 22.34 17.94 22.4 17.68 22.38C17.58 22.36 17.49 22.35 17.49 22.34C17.49 22.33 17.61 22.26 17.74 22.2C18.08 22.04 18.36 21.76 18.53 21.41C18.7 21.06 18.75 20.85 18.77 20.39C18.78 20.02 18.78 19.98 18.69 19.67C18.35 18.48 17.13 17.78 15.72 17.99C14.93 18.1 14.35 18.39 13.85 18.91C13.17 19.61 12.84 20.44 12.84 21.44C12.84 22.08 12.98 22.68 13.27 23.31C13.97 24.77 15.32 25.77 16.99 26.05C17.33 26.11 17.46 26.12 17.98 26.11C18.4 26.09 18.66 26.07 18.87 26.03C20.14 25.77 21.2 25.2 22.13 24.27C23.36 23.04 24.04 21.39 24.04 19.6C24.04 18.41 23.78 17.34 23.22 16.24C22.14 14.1 20.12 12.54 17.77 12.02C17.03 11.85 16.8 11.83 15.88 11.83C14.97 11.83 14.72 11.86 14.01 12.01C11.13 12.65 8.62 14.68 7.39 17.38C5.9 20.64 6.27 24.43 8.39 27.56C9.75 29.58 11.72 31.09 14.03 31.89C15.28 32.33 16.44 32.52 17.82 32.52C19.29 32.52 20.54 32.31 21.89 31.83C24.63 30.86 26.93 29.02 28.52 26.54C28.82 26.07 29.36 25.01 29.57 24.48C30.07 23.22 30.35 21.99 30.47 20.63C30.52 20.01 30.48 18.55 30.4 17.96C30.22 16.56 29.85 15.24 29.32 14.04C28.29 11.73 26.73 9.77 24.71 8.24C21.25 5.64 16.66 4.72 12.34 5.78C9.29 6.52 6.57 8.11 4.4 10.39C3.27 11.59 2.41 12.82 1.67 14.3C0.22 17.23 -0.3 20.51 0.16 23.83C0.53 26.52 1.63 29.25 3.26 31.53C6.16 35.59 10.54 38.22 15.47 38.86C16.38 38.98 16.73 39 17.81 39C19.43 39 20.54 38.87 22.06 38.51C26.83 37.38 31.05 34.45 33.79 30.35C35.42 27.92 36.49 25.02 36.85 22.07C36.97 21.17 37 20.71 37 19.64C37 18.28 36.91 17.33 36.69 16.1C35.43 9.26 30.83 3.43 24.45 0.63C24.05 0.45 23.25 0.14 23 0.06C22.79 -0.01 22.32 -0.03 22.08 0.03Z" fill="#FFFFFF" fill-opacity="1.000000" fill-rule="nonzero"/>
</svg>
