<svg width="269.000000" height="284.000000" viewBox="0 0 269 284" fill="none" xmlns="http://www.w3.org/2000/svg" xmlns:xlink="http://www.w3.org/1999/xlink">
	<desc>
			Created with Pixso.
	</desc>
	<defs>
		<filter id="filter_35_28_dd" x="0.000000" y="0.000000" width="269.000000" height="284.000000" filterUnits="userSpaceOnUse" color-interpolation-filters="sRGB">
			<feFlood flood-opacity="0" result="BackgroundImageFix"/>
			<feBlend mode="normal" in="SourceGraphic" in2="BackgroundImageFix" result="shape"/>
			<feColorMatrix in="SourceAlpha" type="matrix" values="0 0 0 0 0 0 0 0 0 0 0 0 0 0 0 0 0 0 127 0" result="hardAlpha"/>
			<feOffset dx="0" dy="4"/>
			<feGaussianBlur stdDeviation="1.33333"/>
			<feComposite in2="hardAlpha" operator="arithmetic" k2="-1" k3="1"/>
			<feColorMatrix type="matrix" values="0 0 0 0 0 0 0 0 0 0 0 0 0 0 0 0 0 0 0.25 0"/>
			<feBlend mode="normal" in2="shape" result="effect_innerShadow_1"/>
		</filter>
	</defs>
	<g filter="url(#filter_35_28_dd)">
		<path id="Vector" d="M160.56 0.24C157.89 0.84 154.91 2.64 153.06 4.79C151.24 6.88 149.88 10.61 149.88 13.43C149.9 17.16 151.24 20.4 153.86 23.02C155.86 25.02 156.62 25.44 160.94 27.13C175.99 32.99 188.18 40.43 200.04 51.02C221.53 70.21 236.36 97.58 240.5 125.7C241.61 133.11 242.06 144.08 241.55 150.9C238.68 189.38 218.01 222.38 184.58 241.83C172.01 249.13 157.18 254.17 142.65 256.02C133.4 257.19 122.23 257.04 113.18 255.57C84.77 251.02 59.95 235.03 44.11 211.07C41.13 206.57 39.42 203.57 37.22 198.97C32.5 189.2 29.56 179.5 28.12 169C26.81 159.42 27.14 148.17 28.99 138.78C35.35 106.71 58.21 80.91 89.6 70.45C94.47 68.83 100.03 67.59 106.51 66.7C109.84 66.23 122.32 66.32 125.86 66.81C144.08 69.41 159.09 76.67 171.35 88.84C184.27 101.67 192.12 117.72 194.17 135.58C194.79 140.93 194.41 150.01 193.34 155.45C191.16 166.6 186.58 176.57 179.78 185.09C177.66 187.74 172.24 193.11 169.46 195.31C152.15 209.03 130.28 213.21 110.93 206.5C93.65 200.51 80.41 186.12 75.92 168.46C74.83 164.13 74.61 162.22 74.61 156.89C74.61 151.52 74.83 149.52 75.96 145.24C79.28 132.47 88.24 121.9 100.21 116.61C114.65 110.22 130.91 113.33 140.23 124.21C147.08 132.2 149.24 141.93 146.08 150.54C144.28 155.5 140.2 159.74 135.29 161.78C133.09 162.69 130.46 163.16 128.59 162.98C127.82 162.89 127.19 162.76 127.21 162.69C127.21 162.62 128.04 162.16 129.04 161.69C131.49 160.51 133.49 158.49 134.73 155.96C136 153.39 136.36 151.9 136.47 148.55C136.58 145.81 136.53 145.5 135.91 143.31C133.42 134.58 124.55 129.52 114.29 131C108.55 131.85 104.37 133.91 100.7 137.71C95.76 142.84 93.38 148.86 93.36 156.16C93.36 160.85 94.38 165.2 96.52 169.75C101.57 180.43 111.38 187.71 123.52 189.76C126.06 190.18 126.95 190.25 130.75 190.14C133.82 190.05 135.71 189.89 137.22 189.56C146.48 187.67 154.15 183.52 160.89 176.77C169.86 167.84 174.79 155.78 174.79 142.77C174.79 134.09 172.9 126.3 168.85 118.28C161 102.71 146.32 91.32 129.19 87.53C123.86 86.35 122.19 86.17 115.51 86.19C108.86 86.19 107.06 86.37 101.88 87.5C80.95 92.12 62.69 106.96 53.74 126.58C42.91 150.37 45.6 177.94 60.99 200.75C70.92 215.43 85.22 226.42 102.06 232.26C111.15 235.43 119.54 236.81 129.59 236.83C140.27 236.83 149.35 235.3 159.2 231.79C179.06 224.75 195.81 211.36 207.36 193.31C209.56 189.85 213.5 182.14 214.99 178.32C218.61 169.08 220.68 160.16 221.53 150.28C221.91 145.73 221.66 135.13 221.08 130.8C219.7 120.59 217.06 110.97 213.19 102.27C205.69 85.42 194.35 71.16 179.67 60.06C154.51 41.07 121.16 34.41 89.71 42.09C67.6 47.51 47.78 59.06 32.01 75.71C23.78 84.39 17.53 93.39 12.19 104.16C1.63 125.5 -2.18 149.39 1.18 173.55C3.9 193.13 11.88 213.01 23.71 229.62C44.8 259.21 76.68 278.38 112.51 283C119.1 283.86 121.65 284 129.53 284C141.27 284 149.37 283.06 160.45 280.44C195.1 272.23 225.75 250.87 245.68 221.07C257.54 203.32 265.32 182.25 267.97 160.78C268.79 154.16 269 150.88 269 143.02C269 133.16 268.39 126.25 266.75 117.26C257.65 67.47 224.15 25 177.82 4.59C174.86 3.28 169.08 1.02 167.25 0.44C165.72 -0.05 162.27 -0.16 160.56 0.24Z" fill="#97F3FF" fill-opacity="0.700000" fill-rule="nonzero"/>
	</g>
</svg>
