<svg width="27.000000" height="27.000000" viewBox="0 0 27 27" fill="none" xmlns="http://www.w3.org/2000/svg" xmlns:xlink="http://www.w3.org/1999/xlink">
	<desc>
			Created with Pixso.
	</desc>
	<defs/>
	<path id="Vector" d="M23.56 0L3.43 0C2.52 0 1.65 0.36 1 1C0.36 1.65 0 2.52 0 3.43L0 23.56C0 24.47 0.36 25.34 1 25.99C1.65 26.63 2.52 27 3.43 27L23.56 27C24.47 27 25.34 26.63 25.99 25.99C26.63 25.34 27 24.47 27 23.56L27 3.43C27 2.52 26.63 1.65 25.99 1C25.34 0.36 24.47 0 23.56 0ZM20.1 14.32C20.18 15.21 23.38 17.13 23.14 18.59C23.04 19.26 21.93 19.14 20.95 19.17C20.05 19.21 19.17 19.14 18.77 18.98C18.11 18.72 16.36 16.41 15.91 16.5C14.88 16.71 15.26 18.83 14.96 18.98C14.51 19.19 13.11 19.13 12.57 19.07C9.69 18.59 8.04 16.68 6.48 14.21C4.56 11.2 3.42 8.97 3.91 8.68C4.42 8.39 5.91 8.46 7.42 8.49C7.88 8.51 9.18 11.77 9.52 12.31C10.88 14.49 11.3 12.88 11.33 12.69C11.7 8.77 10.75 8.95 10.18 8.87C10.59 7.61 13.52 7.83 13.52 7.83C13.52 7.83 14.5 8.07 14.85 8.31C15 8.4 15.16 8.73 15.15 9.73C15.1 11.27 14.94 13.35 15.62 13.35C16.14 13.37 16.95 12.14 17.62 10.88C18.2 9.76 18.65 8.67 18.85 8.59C19.07 8.51 20.01 8.51 20.95 8.49C21.87 8.49 22.8 8.49 23.05 8.68C23.54 9.1 22.68 10.44 21.9 11.55C21.27 12.47 20.02 13.66 20.1 14.32Z" fill="#999999" fill-opacity="1.000000" fill-rule="nonzero"/>
</svg>
