<svg width="23.750000" height="38.000000" viewBox="0 0 23.75 38" fill="none" xmlns="http://www.w3.org/2000/svg" xmlns:xlink="http://www.w3.org/1999/xlink">
	<desc>
			Created with Pixso.
	</desc>
	<defs/>
	<path id="Vector" d="M23.75 1.9C23.75 0.71 22.8 0 21.85 0L21.37 0C17.33 0 14.25 4.51 14.25 11.16L14.25 13.3C14.25 15.67 15.43 17.81 17.57 19C16.86 21.85 16.62 24.93 16.62 24.93L16.62 34.43C16.62 36.33 18.28 38 20.18 38C22.08 38 23.75 36.33 23.75 34.43L23.75 24.93C23.75 23.98 23.51 21.61 23.03 19.47C23.51 19 23.75 18.52 23.75 17.81L23.75 1.9Z" fill="#FFFFFF" fill-opacity="1.000000" fill-rule="nonzero"/>
	<path id="Vector" d="M9.97 0L9.5 0L9.5 8.31C9.5 9.02 9.02 9.5 8.31 9.5C7.59 9.5 7.12 9.02 7.12 8.31L7.12 1.18C7.12 0.47 6.65 0 5.93 0C5.22 0 4.75 0.47 4.75 1.18L4.75 8.31C4.75 9.02 4.27 9.5 3.56 9.5C2.84 9.5 2.37 9.02 2.37 8.31L2.37 0L1.9 0C0.95 0 0 0.94 0 1.9L0 10.68C0 13.06 1.42 15.2 3.56 16.15C2.61 19.95 2.37 24.93 2.37 24.93L2.37 34.43C2.37 36.33 4.03 38 5.93 38C7.83 38 9.5 36.33 9.5 34.43L9.5 24.93C9.5 23.75 9.26 19.47 8.54 16.15C10.45 15.2 11.87 13.06 11.87 10.68L11.87 1.9C11.87 0.94 10.92 0 9.97 0Z" fill="#FFFFFF" fill-opacity="1.000000" fill-rule="nonzero"/>
</svg>
